<mxfile host="app.diagrams.net" agent="Mozilla/5.0 (Windows NT 10.0; Win64; x64) AppleWebKit/537.36 (KHTML, like Gecko) Chrome/129.0.0.0 Safari/537.36" version="24.7.17">
  <diagram id="R2lEEEUBdFMjLlhIrx00" name="Page-1">
    <mxGraphModel dx="3240" dy="2397" grid="1" gridSize="10" guides="1" tooltips="1" connect="1" arrows="1" fold="1" page="1" pageScale="1" pageWidth="850" pageHeight="1100" math="0" shadow="0" extFonts="Permanent Marker^https://fonts.googleapis.com/css?family=Permanent+Marker">
      <root>
        <mxCell id="0" />
        <mxCell id="1" parent="0" />
        <mxCell id="iupofRJ8wWLY9DJQLIAq-15" value="Ususario" style="swimlane;childLayout=stackLayout;horizontal=1;startSize=50;horizontalStack=0;rounded=1;fontSize=14;fontStyle=0;strokeWidth=2;resizeParent=0;resizeLast=1;shadow=0;dashed=0;align=center;arcSize=4;whiteSpace=wrap;html=1;" parent="1" vertex="1">
          <mxGeometry x="-820" y="-1090" width="170" height="200" as="geometry" />
        </mxCell>
        <mxCell id="iupofRJ8wWLY9DJQLIAq-16" value="&lt;span style=&quot;font-weight: 700; text-decoration-line: underline; font-size: 14px;&quot;&gt;&lt;font style=&quot;font-size: 14px;&quot;&gt;-Correo electrinico&lt;/font&gt;&lt;/span&gt;&lt;div style=&quot;font-size: 14px;&quot;&gt;&lt;font style=&quot;font-size: 14px;&quot;&gt;-Nombre&lt;br style=&quot;padding: 0px; margin: 0px;&quot;&gt;-Contrasena&lt;br style=&quot;padding: 0px; margin: 0px;&quot;&gt;-Fecha de nacimiento&lt;br style=&quot;padding: 0px; margin: 0px;&quot;&gt;-Fecha de registro&lt;br style=&quot;padding: 0px; margin: 0px;&quot;&gt;-Rango de edad&lt;br style=&quot;padding: 0px; margin: 0px;&quot;&gt;-Genero&lt;br style=&quot;padding: 0px; margin: 0px;&quot;&gt;-Telefono&lt;/font&gt;&lt;span style=&quot;font-size: 13px; font-weight: 700; text-decoration-line: underline;&quot;&gt;&lt;br&gt;&lt;/span&gt;&lt;/div&gt;" style="align=left;strokeColor=none;fillColor=none;spacingLeft=4;fontSize=12;verticalAlign=top;resizable=0;rotatable=0;part=1;html=1;" parent="iupofRJ8wWLY9DJQLIAq-15" vertex="1">
          <mxGeometry y="50" width="170" height="150" as="geometry" />
        </mxCell>
        <mxCell id="iupofRJ8wWLY9DJQLIAq-18" value="Asistente virtual" style="swimlane;childLayout=stackLayout;horizontal=1;startSize=50;horizontalStack=0;rounded=1;fontSize=14;fontStyle=0;strokeWidth=2;resizeParent=0;resizeLast=1;shadow=0;dashed=0;align=center;arcSize=4;whiteSpace=wrap;html=1;" parent="1" vertex="1">
          <mxGeometry x="-610" width="168" height="152" as="geometry" />
        </mxCell>
        <mxCell id="iupofRJ8wWLY9DJQLIAq-19" value="&lt;div style=&quot;&quot;&gt;&lt;span style=&quot;font-weight: 700; text-decoration-line: underline; font-size: 14px;&quot;&gt;-PK:?&lt;/span&gt;&lt;/div&gt;&lt;div style=&quot;&quot;&gt;-Avatar&lt;/div&gt;&lt;div style=&quot;&quot;&gt;-Nombre&lt;/div&gt;&lt;div style=&quot;&quot;&gt;-Idiomas*&lt;/div&gt;&lt;div style=&quot;&quot;&gt;-Genero&lt;/div&gt;&lt;div style=&quot;&quot;&gt;-Historia de fondo&lt;/div&gt;" style="align=left;strokeColor=none;fillColor=none;spacingLeft=4;fontSize=12;verticalAlign=top;resizable=0;rotatable=0;part=1;html=1;" parent="iupofRJ8wWLY9DJQLIAq-18" vertex="1">
          <mxGeometry y="50" width="168" height="102" as="geometry" />
        </mxCell>
        <mxCell id="QySvND94s1hB9OFREuVr-1" value="Idioma" style="swimlane;childLayout=stackLayout;horizontal=1;startSize=50;horizontalStack=0;rounded=1;fontSize=14;fontStyle=0;strokeWidth=2;resizeParent=0;resizeLast=1;shadow=0;dashed=0;align=center;arcSize=4;whiteSpace=wrap;html=1;" vertex="1" parent="1">
          <mxGeometry x="-589.25" y="562" width="122.5" height="102" as="geometry">
            <mxRectangle x="-54.5" y="510" width="80" height="20" as="alternateBounds" />
          </mxGeometry>
        </mxCell>
        <mxCell id="QySvND94s1hB9OFREuVr-2" value="&lt;div style=&quot;&quot;&gt;&lt;span style=&quot;font-size: 14px;&quot;&gt;&lt;b&gt;&lt;u&gt;-Id idioma&lt;/u&gt;&lt;/b&gt;&lt;/span&gt;&lt;/div&gt;&lt;div style=&quot;&quot;&gt;&lt;div&gt;-Nombre&lt;/div&gt;&lt;div&gt;&lt;br&gt;&lt;/div&gt;&lt;/div&gt;" style="align=left;strokeColor=none;fillColor=none;spacingLeft=4;fontSize=12;verticalAlign=top;resizable=0;rotatable=0;part=1;html=1;" vertex="1" parent="QySvND94s1hB9OFREuVr-1">
          <mxGeometry y="50" width="122.5" height="52" as="geometry" />
        </mxCell>
        <mxCell id="QySvND94s1hB9OFREuVr-7" value="" style="endArrow=none;html=1;rounded=0;" edge="1" parent="1">
          <mxGeometry width="50" height="50" relative="1" as="geometry">
            <mxPoint x="-520" y="180" as="sourcePoint" />
            <mxPoint x="-520" y="150" as="targetPoint" />
          </mxGeometry>
        </mxCell>
        <mxCell id="QySvND94s1hB9OFREuVr-10" value="" style="endArrow=none;html=1;rounded=0;" edge="1" parent="1">
          <mxGeometry width="50" height="50" relative="1" as="geometry">
            <mxPoint x="-560" y="220" as="sourcePoint" />
            <mxPoint x="-520" y="180" as="targetPoint" />
          </mxGeometry>
        </mxCell>
        <mxCell id="QySvND94s1hB9OFREuVr-11" value="" style="endArrow=none;html=1;rounded=0;" edge="1" parent="1">
          <mxGeometry width="50" height="50" relative="1" as="geometry">
            <mxPoint x="-480" y="220" as="sourcePoint" />
            <mxPoint x="-520" y="180" as="targetPoint" />
          </mxGeometry>
        </mxCell>
        <mxCell id="QySvND94s1hB9OFREuVr-13" value="" style="endArrow=none;html=1;rounded=0;" edge="1" parent="1">
          <mxGeometry width="50" height="50" relative="1" as="geometry">
            <mxPoint x="-780" y="220" as="sourcePoint" />
            <mxPoint x="-140" y="220" as="targetPoint" />
          </mxGeometry>
        </mxCell>
        <mxCell id="QySvND94s1hB9OFREuVr-14" value="Amigo" style="whiteSpace=wrap;html=1;align=center;" vertex="1" parent="1">
          <mxGeometry x="-830" y="280" width="98" height="42" as="geometry" />
        </mxCell>
        <mxCell id="QySvND94s1hB9OFREuVr-15" value="Tutor" style="whiteSpace=wrap;html=1;align=center;" vertex="1" parent="1">
          <mxGeometry x="-575" y="280" width="98" height="42" as="geometry" />
        </mxCell>
        <mxCell id="QySvND94s1hB9OFREuVr-16" value="Coach" style="whiteSpace=wrap;html=1;align=center;" vertex="1" parent="1">
          <mxGeometry x="-190" y="280" width="98" height="42" as="geometry" />
        </mxCell>
        <mxCell id="QySvND94s1hB9OFREuVr-17" value="" style="endArrow=none;html=1;rounded=0;exitX=0.5;exitY=0;exitDx=0;exitDy=0;" edge="1" parent="1" source="QySvND94s1hB9OFREuVr-14">
          <mxGeometry width="50" height="50" relative="1" as="geometry">
            <mxPoint x="-720" y="220" as="sourcePoint" />
            <mxPoint x="-780" y="220" as="targetPoint" />
          </mxGeometry>
        </mxCell>
        <mxCell id="QySvND94s1hB9OFREuVr-18" value="" style="endArrow=none;html=1;rounded=0;exitX=0.5;exitY=0;exitDx=0;exitDy=0;" edge="1" parent="1">
          <mxGeometry width="50" height="50" relative="1" as="geometry">
            <mxPoint x="-525.34" y="280" as="sourcePoint" />
            <mxPoint x="-525.34" y="220" as="targetPoint" />
          </mxGeometry>
        </mxCell>
        <mxCell id="QySvND94s1hB9OFREuVr-19" value="" style="endArrow=none;html=1;rounded=0;exitX=0.5;exitY=0;exitDx=0;exitDy=0;" edge="1" parent="1">
          <mxGeometry width="50" height="50" relative="1" as="geometry">
            <mxPoint x="-140.33999999999992" y="280" as="sourcePoint" />
            <mxPoint x="-140.33999999999992" y="220" as="targetPoint" />
          </mxGeometry>
        </mxCell>
        <mxCell id="QySvND94s1hB9OFREuVr-27" value="" style="triangle;whiteSpace=wrap;html=1;direction=north;fillColor=none;" vertex="1" parent="1">
          <mxGeometry x="-565" y="350" width="78" height="42" as="geometry" />
        </mxCell>
        <mxCell id="QySvND94s1hB9OFREuVr-28" value="" style="endArrow=none;html=1;rounded=0;" edge="1" parent="1" source="QySvND94s1hB9OFREuVr-27">
          <mxGeometry width="50" height="50" relative="1" as="geometry">
            <mxPoint x="-575" y="370" as="sourcePoint" />
            <mxPoint x="-525" y="320" as="targetPoint" />
          </mxGeometry>
        </mxCell>
        <mxCell id="QySvND94s1hB9OFREuVr-29" value="" style="endArrow=none;html=1;rounded=0;" edge="1" parent="1">
          <mxGeometry width="50" height="50" relative="1" as="geometry">
            <mxPoint x="-682" y="392" as="sourcePoint" />
            <mxPoint x="-392" y="392" as="targetPoint" />
          </mxGeometry>
        </mxCell>
        <mxCell id="QySvND94s1hB9OFREuVr-30" value="" style="endArrow=none;html=1;rounded=0;" edge="1" parent="1">
          <mxGeometry width="50" height="50" relative="1" as="geometry">
            <mxPoint x="-682" y="432" as="sourcePoint" />
            <mxPoint x="-682" y="392" as="targetPoint" />
          </mxGeometry>
        </mxCell>
        <mxCell id="QySvND94s1hB9OFREuVr-31" value="Apoyo educativo" style="whiteSpace=wrap;html=1;align=center;" vertex="1" parent="1">
          <mxGeometry x="-732" y="432" width="98" height="42" as="geometry" />
        </mxCell>
        <mxCell id="QySvND94s1hB9OFREuVr-32" value="Ensenanzas de Idiomas" style="whiteSpace=wrap;html=1;align=center;" vertex="1" parent="1">
          <mxGeometry x="-577" y="432" width="98" height="42" as="geometry" />
        </mxCell>
        <mxCell id="QySvND94s1hB9OFREuVr-33" value="" style="endArrow=none;html=1;rounded=0;" edge="1" parent="1">
          <mxGeometry width="50" height="50" relative="1" as="geometry">
            <mxPoint x="-527.34" y="432" as="sourcePoint" />
            <mxPoint x="-527.34" y="392" as="targetPoint" />
          </mxGeometry>
        </mxCell>
        <mxCell id="QySvND94s1hB9OFREuVr-34" value="" style="endArrow=none;html=1;rounded=0;" edge="1" parent="1">
          <mxGeometry width="50" height="50" relative="1" as="geometry">
            <mxPoint x="-392" y="432" as="sourcePoint" />
            <mxPoint x="-392" y="392" as="targetPoint" />
          </mxGeometry>
        </mxCell>
        <mxCell id="QySvND94s1hB9OFREuVr-35" value="Preparacion de Examenes" style="whiteSpace=wrap;html=1;align=center;" vertex="1" parent="1">
          <mxGeometry x="-442" y="432" width="98" height="42" as="geometry" />
        </mxCell>
        <mxCell id="QySvND94s1hB9OFREuVr-37" value="" style="triangle;whiteSpace=wrap;html=1;direction=north;fillColor=none;" vertex="1" parent="1">
          <mxGeometry x="-180" y="350" width="78" height="42" as="geometry" />
        </mxCell>
        <mxCell id="QySvND94s1hB9OFREuVr-38" value="" style="endArrow=none;html=1;rounded=0;" edge="1" parent="1" source="QySvND94s1hB9OFREuVr-37">
          <mxGeometry width="50" height="50" relative="1" as="geometry">
            <mxPoint x="-190" y="370" as="sourcePoint" />
            <mxPoint x="-140" y="320" as="targetPoint" />
          </mxGeometry>
        </mxCell>
        <mxCell id="QySvND94s1hB9OFREuVr-39" value="" style="endArrow=none;html=1;rounded=0;" edge="1" parent="1">
          <mxGeometry width="50" height="50" relative="1" as="geometry">
            <mxPoint x="-240" y="392" as="sourcePoint" />
            <mxPoint x="-30" y="392" as="targetPoint" />
          </mxGeometry>
        </mxCell>
        <mxCell id="QySvND94s1hB9OFREuVr-40" value="Organizacion de tiempo" style="whiteSpace=wrap;html=1;align=center;" vertex="1" parent="1">
          <mxGeometry x="-80" y="432" width="98" height="42" as="geometry" />
        </mxCell>
        <mxCell id="QySvND94s1hB9OFREuVr-41" value="" style="endArrow=none;html=1;rounded=0;" edge="1" parent="1">
          <mxGeometry width="50" height="50" relative="1" as="geometry">
            <mxPoint x="-30.319999999999936" y="432" as="sourcePoint" />
            <mxPoint x="-30.319999999999936" y="392" as="targetPoint" />
          </mxGeometry>
        </mxCell>
        <mxCell id="QySvND94s1hB9OFREuVr-42" value="Planificacion" style="whiteSpace=wrap;html=1;align=center;" vertex="1" parent="1">
          <mxGeometry x="-290" y="432" width="98" height="42" as="geometry" />
        </mxCell>
        <mxCell id="QySvND94s1hB9OFREuVr-43" value="" style="endArrow=none;html=1;rounded=0;" edge="1" parent="1">
          <mxGeometry width="50" height="50" relative="1" as="geometry">
            <mxPoint x="-240.31999999999994" y="432" as="sourcePoint" />
            <mxPoint x="-240.31999999999994" y="392" as="targetPoint" />
          </mxGeometry>
        </mxCell>
        <mxCell id="QySvND94s1hB9OFREuVr-45" value="" style="endArrow=none;html=1;rounded=0;exitX=0.5;exitY=1;exitDx=0;exitDy=0;entryX=0.5;entryY=0;entryDx=0;entryDy=0;" edge="1" parent="1" source="QySvND94s1hB9OFREuVr-32" target="QySvND94s1hB9OFREuVr-1">
          <mxGeometry relative="1" as="geometry">
            <mxPoint x="-727" y="542" as="sourcePoint" />
            <mxPoint x="-567" y="542" as="targetPoint" />
          </mxGeometry>
        </mxCell>
        <mxCell id="QySvND94s1hB9OFREuVr-46" value="M" style="resizable=0;html=1;whiteSpace=wrap;align=left;verticalAlign=bottom;" connectable="0" vertex="1" parent="QySvND94s1hB9OFREuVr-45">
          <mxGeometry x="-1" relative="1" as="geometry">
            <mxPoint x="5" y="20" as="offset" />
          </mxGeometry>
        </mxCell>
        <mxCell id="QySvND94s1hB9OFREuVr-47" value="N" style="resizable=0;html=1;whiteSpace=wrap;align=right;verticalAlign=bottom;" connectable="0" vertex="1" parent="QySvND94s1hB9OFREuVr-45">
          <mxGeometry x="1" relative="1" as="geometry">
            <mxPoint x="15" as="offset" />
          </mxGeometry>
        </mxCell>
        <mxCell id="QySvND94s1hB9OFREuVr-48" value="Avatar" style="swimlane;childLayout=stackLayout;horizontal=1;startSize=50;horizontalStack=0;rounded=1;fontSize=14;fontStyle=0;strokeWidth=2;resizeParent=0;resizeLast=1;shadow=0;dashed=0;align=center;arcSize=4;whiteSpace=wrap;html=1;" vertex="1" parent="1">
          <mxGeometry x="-182" y="-1020" width="130" height="100" as="geometry" />
        </mxCell>
        <mxCell id="QySvND94s1hB9OFREuVr-49" value="&lt;span style=&quot;font-weight: 700; text-decoration-line: underline; font-size: 14px;&quot;&gt;&lt;font style=&quot;font-size: 14px;&quot;&gt;-Id&lt;/font&gt;&lt;/span&gt;&lt;div style=&quot;font-size: 14px;&quot;&gt;&lt;font style=&quot;font-size: 14px;&quot;&gt;-&lt;/font&gt;&lt;span style=&quot;font-size: 13px; font-weight: 700; text-decoration-line: underline;&quot;&gt;&lt;br&gt;&lt;/span&gt;&lt;/div&gt;" style="align=left;strokeColor=none;fillColor=none;spacingLeft=4;fontSize=12;verticalAlign=top;resizable=0;rotatable=0;part=1;html=1;" vertex="1" parent="QySvND94s1hB9OFREuVr-48">
          <mxGeometry y="50" width="130" height="50" as="geometry" />
        </mxCell>
        <mxCell id="QySvND94s1hB9OFREuVr-50" value="Personalidad" style="swimlane;childLayout=stackLayout;horizontal=1;startSize=50;horizontalStack=0;rounded=1;fontSize=14;fontStyle=0;strokeWidth=2;resizeParent=0;resizeLast=1;shadow=0;dashed=0;align=center;arcSize=4;whiteSpace=wrap;html=1;" vertex="1" parent="1">
          <mxGeometry x="-10" y="-1020" width="130" height="110" as="geometry" />
        </mxCell>
        <mxCell id="QySvND94s1hB9OFREuVr-51" value="&lt;span style=&quot;font-weight: 700; text-decoration-line: underline; font-size: 14px;&quot;&gt;&lt;font style=&quot;font-size: 14px;&quot;&gt;-Id&lt;/font&gt;&lt;/span&gt;&lt;div style=&quot;font-size: 14px;&quot;&gt;&lt;font style=&quot;font-size: 14px;&quot;&gt;-Imagen&lt;/font&gt;&lt;span style=&quot;font-size: 13px; font-weight: 700; text-decoration-line: underline;&quot;&gt;&lt;br&gt;&lt;/span&gt;&lt;/div&gt;&lt;div style=&quot;font-size: 14px;&quot;&gt;-Nombre&lt;/div&gt;" style="align=left;strokeColor=none;fillColor=none;spacingLeft=4;fontSize=12;verticalAlign=top;resizable=0;rotatable=0;part=1;html=1;" vertex="1" parent="QySvND94s1hB9OFREuVr-50">
          <mxGeometry y="50" width="130" height="60" as="geometry" />
        </mxCell>
        <mxCell id="QySvND94s1hB9OFREuVr-52" value="Interes&lt;div&gt;&lt;br&gt;&lt;/div&gt;" style="swimlane;childLayout=stackLayout;horizontal=1;startSize=50;horizontalStack=0;rounded=1;fontSize=14;fontStyle=0;strokeWidth=2;resizeParent=0;resizeLast=1;shadow=0;dashed=0;align=center;arcSize=4;whiteSpace=wrap;html=1;" vertex="1" parent="1">
          <mxGeometry x="170" y="-1020" width="130" height="100" as="geometry" />
        </mxCell>
        <mxCell id="QySvND94s1hB9OFREuVr-53" value="&lt;span style=&quot;font-weight: 700; text-decoration-line: underline; font-size: 14px;&quot;&gt;&lt;font style=&quot;font-size: 14px;&quot;&gt;-Nombre&lt;/font&gt;&lt;/span&gt;&lt;div style=&quot;font-size: 14px;&quot;&gt;&lt;font style=&quot;font-size: 14px;&quot;&gt;-Imagen&lt;/font&gt;&lt;span style=&quot;font-size: 13px; font-weight: 700; text-decoration-line: underline;&quot;&gt;&lt;br&gt;&lt;/span&gt;&lt;/div&gt;" style="align=left;strokeColor=none;fillColor=none;spacingLeft=4;fontSize=12;verticalAlign=top;resizable=0;rotatable=0;part=1;html=1;" vertex="1" parent="QySvND94s1hB9OFREuVr-52">
          <mxGeometry y="50" width="130" height="50" as="geometry" />
        </mxCell>
        <mxCell id="QySvND94s1hB9OFREuVr-54" value="Apariencia" style="swimlane;childLayout=stackLayout;horizontal=1;startSize=50;horizontalStack=0;rounded=1;fontSize=14;fontStyle=0;strokeWidth=2;resizeParent=0;resizeLast=1;shadow=0;dashed=0;align=center;arcSize=4;whiteSpace=wrap;html=1;" vertex="1" parent="1">
          <mxGeometry x="-190" y="-880" width="130" height="150" as="geometry" />
        </mxCell>
        <mxCell id="QySvND94s1hB9OFREuVr-55" value="&lt;span style=&quot;font-weight: 700; text-decoration-line: underline; font-size: 14px;&quot;&gt;&lt;font style=&quot;font-size: 14px;&quot;&gt;-Id&lt;/font&gt;&lt;/span&gt;&lt;div style=&quot;font-size: 14px;&quot;&gt;&lt;font style=&quot;font-size: 14px;&quot;&gt;-Descripcion&lt;/font&gt;&lt;span style=&quot;font-size: 13px; font-weight: 700; text-decoration-line: underline;&quot;&gt;&lt;br&gt;&lt;/span&gt;&lt;/div&gt;&lt;div style=&quot;font-size: 14px;&quot;&gt;&lt;font style=&quot;font-size: 14px;&quot;&gt;-categorias?&lt;/font&gt;&lt;/div&gt;&lt;div style=&quot;font-size: 14px;&quot;&gt;&lt;font style=&quot;font-size: 14px;&quot;&gt;-Imagen&lt;/font&gt;&lt;/div&gt;" style="align=left;strokeColor=none;fillColor=none;spacingLeft=4;fontSize=12;verticalAlign=top;resizable=0;rotatable=0;part=1;html=1;" vertex="1" parent="QySvND94s1hB9OFREuVr-54">
          <mxGeometry y="50" width="130" height="100" as="geometry" />
        </mxCell>
        <mxCell id="QySvND94s1hB9OFREuVr-56" value="Ropa" style="swimlane;childLayout=stackLayout;horizontal=1;startSize=50;horizontalStack=0;rounded=1;fontSize=14;fontStyle=0;strokeWidth=2;resizeParent=0;resizeLast=1;shadow=0;dashed=0;align=center;arcSize=4;whiteSpace=wrap;html=1;" vertex="1" parent="1">
          <mxGeometry y="-880" width="130" height="120" as="geometry" />
        </mxCell>
        <mxCell id="QySvND94s1hB9OFREuVr-57" value="&lt;span style=&quot;font-weight: 700; text-decoration-line: underline; font-size: 14px;&quot;&gt;&lt;font style=&quot;font-size: 14px;&quot;&gt;-Id&lt;/font&gt;&lt;/span&gt;&lt;div style=&quot;font-size: 14px;&quot;&gt;&lt;font style=&quot;font-size: 14px;&quot;&gt;-Descripcion&lt;/font&gt;&lt;span style=&quot;font-size: 13px; font-weight: 700; text-decoration-line: underline;&quot;&gt;&lt;br&gt;&lt;/span&gt;&lt;/div&gt;&lt;div style=&quot;font-size: 14px;&quot;&gt;&lt;font style=&quot;font-size: 14px;&quot;&gt;-Tipo de ropa&lt;/font&gt;&lt;/div&gt;" style="align=left;strokeColor=none;fillColor=none;spacingLeft=4;fontSize=12;verticalAlign=top;resizable=0;rotatable=0;part=1;html=1;" vertex="1" parent="QySvND94s1hB9OFREuVr-56">
          <mxGeometry y="50" width="130" height="70" as="geometry" />
        </mxCell>
      </root>
    </mxGraphModel>
  </diagram>
</mxfile>
